# xmcd
#
# Track frame offsets: 
#        150
#        24083
#        50212
#        75277
#        95801
#        117910
#        141522
#        169467
#        196354
#        220063
#        237591
#
# Disc length: 3559 seconds
#
# Revision: 1
# Processed by: cddbd v1.5.2PL0 Copyright (c) Steve Scherf et al.
# Submitted via: ExactAudioCopy v0.99pb4
#
DISCID=9e0de50b
DTITLE=Denzal Sinclaire - My one and only love
DYEAR=2006
DGENRE=Jazz
TTITLE0=Happier than the morning sun
TTITLE1=Always on my mind
TTITLE2=Smoke gets in your eyes
TTITLE3=Follow you follow me
TTITLE4=I can see clearly now
TTITLE5=Here comes the honeyman
TTITLE6=Stardust
TTITLE7=Estate
TTITLE8=For you, for me, for evermore
TTITLE9=My one and only love
TTITLE10=Unknown
EXTD=YEAR: 2006
EXTT0=
EXTT1=
EXTT2=
EXTT3=
EXTT4=
EXTT5=
EXTT6=
EXTT7=
EXTT8=
EXTT9=
EXTT10=
PLAYORDER=
